<svg width="79" height="23" viewBox="0 0 79 23" fill="none" xmlns="http://www.w3.org/2000/svg">
<path d="M10.3763 11.7396C9.50532 10.8686 8.59645 10.4521 7.271 10.4521C5.98343 10.4521 5.07456 10.8686 4.20355 11.7396C3.33255 12.6864 2.87811 13.6331 2.87811 15.0343C2.87811 16.3976 3.33255 17.3822 4.20355 18.2911C5.07456 19.2 5.98343 19.6166 7.271 19.6166C8.59645 19.6166 9.50532 19.2 10.3763 18.2911C11.2473 17.3822 11.6639 16.3976 11.6639 15.0343C11.6639 13.6331 11.2473 12.6864 10.3763 11.7396ZM14.6935 15.0722C14.6935 17.0414 13.8225 19.1242 12.5728 20.3739C11.3231 21.6615 9.2781 22.6083 7.34674 22.6083C5.41538 22.6083 3.37041 21.6615 2.12071 20.3739C1.06036 19.2757 0.227222 17.5716 0.0378728 15.8296H3.11254e-06V5.80308e-07H2.87811V9.12662C4.08994 8.21775 5.75621 7.57396 7.34674 7.57396C9.2781 7.57396 11.3231 8.5207 12.5728 9.80828C13.8225 11.058 14.6935 13.1408 14.6935 15.0722ZM27.6701 7.61183H30.5861V22.7597H27.6701V21.1692C26.4583 22.116 24.792 22.7597 23.1636 22.7597C21.2322 22.7597 19.1873 21.813 17.9376 20.5254C16.6879 19.2379 15.779 17.155 15.779 15.1858C15.779 13.2166 16.6879 11.1337 17.9376 9.84615C19.1873 8.55857 21.2322 7.61183 23.1636 7.61183C24.792 7.61183 26.4583 8.25562 27.6701 9.20236V7.61183ZM26.2689 11.929C25.3979 11.0201 24.489 10.6035 23.1636 10.6035C21.876 10.6035 20.9671 11.0201 20.0961 11.929C19.2251 12.8379 18.7707 13.7846 18.7707 15.1858C18.7707 16.587 19.2251 17.5337 20.0961 18.4426C20.9671 19.3515 21.876 19.768 23.1636 19.768C24.489 19.768 25.3979 19.3515 26.2689 18.4426C27.1399 17.5337 27.5565 16.587 27.5565 15.1858C27.5565 13.7846 27.1399 12.8379 26.2689 11.929Z" fill="#1B3626"/>
<path d="M46.2233 12.0047V14.6935V17.3822V20.071V22.7219H45.5038H44.8222H44.1026H43.3831C43.3831 22.7219 43.3831 22.0781 43.421 21.0556C43.421 20.071 43.421 18.7077 43.421 17.3822C43.421 16.0568 43.4588 14.6935 43.4588 13.7089C43.4588 12.6864 43.4588 12.0047 43.4588 11.9669C43.4588 11.8154 43.421 11.626 43.3452 11.4745C43.2695 11.3231 43.1938 11.1716 43.0423 11.058C42.9287 10.9444 42.7772 10.8686 42.6257 10.7929C42.4742 10.7172 42.2849 10.6793 42.0955 10.6793C41.9819 10.6793 41.7926 10.7172 41.6411 10.755C41.4896 10.7929 41.3381 10.8686 41.1867 10.9822C41.073 11.058 40.9216 11.1716 40.808 11.2852C40.7322 11.4367 40.6565 11.5503 40.6186 11.7018C40.6186 11.7018 40.6186 11.9669 40.6186 12.4213C40.6186 12.8757 40.6186 13.4438 40.6186 14.1254C40.6186 14.8071 40.6186 15.5266 40.6186 16.2461C40.6186 16.9278 40.6186 17.6095 40.6186 18.1018V19.2757V20.4497V21.5858V22.7597H39.8991H39.1417H38.4222H37.7026V21.5858V20.4497V19.2757V18.1018C37.7026 17.6095 37.7026 16.9278 37.7026 16.2461C37.7026 15.5266 37.7026 14.8071 37.7026 14.1254C37.7026 13.4438 37.7026 12.8757 37.7026 12.4213C37.7026 11.9669 37.7026 11.7018 37.7026 11.7018C37.6648 11.5503 37.589 11.4367 37.4754 11.2852C37.3997 11.1716 37.2482 11.058 37.1346 10.9822C36.9831 10.8686 36.8316 10.7929 36.6802 10.755C36.4908 10.7172 36.3393 10.6793 36.2257 10.6793C36.0364 10.6793 35.847 10.7172 35.6955 10.7929C35.5441 10.8686 35.3926 10.9444 35.279 11.058C35.1275 11.1716 35.0518 11.3231 34.976 11.4745C34.9003 11.626 34.8624 11.8154 34.8624 11.9669C34.8624 12.0047 34.8624 12.6864 34.8624 13.7089C34.8624 14.6935 34.8624 16.0568 34.9003 17.3822C34.9003 18.7077 34.9003 20.071 34.9003 21.0556C34.9003 22.0781 34.9381 22.7219 34.9381 22.7219H34.2186H33.4991H32.8174H32.0979V20.071V17.3822V14.6935V12.0047C32.0979 11.3988 32.2115 10.8308 32.4009 10.3006C32.6281 9.77041 32.8932 9.31597 33.2719 8.8994C33.6127 8.5207 34.0671 8.17988 34.5216 7.95266C35.0139 7.72544 35.5062 7.61183 36.0742 7.61183H36.1121C36.15 7.61183 36.15 7.61183 36.15 7.61183C36.1878 7.61183 36.1878 7.61183 36.2257 7.61183H36.2636C36.6044 7.61183 36.9452 7.6497 37.2482 7.72544C37.589 7.76331 37.8541 7.87692 38.1192 8.0284C38.3843 8.17988 38.6115 8.36922 38.763 8.59644C38.9523 8.78579 39.0659 9.05088 39.1417 9.39171C39.2553 9.05088 39.3689 8.78579 39.5583 8.59644C39.7097 8.36922 39.937 8.17988 40.202 8.0284C40.4671 7.87692 40.7322 7.76331 41.0352 7.72544C41.376 7.6497 41.679 7.61183 42.0577 7.61183H42.0955H42.1334C42.1713 7.61183 42.1713 7.61183 42.2091 7.61183H42.247C42.8151 7.61183 43.3074 7.72544 43.7997 7.95266C44.2541 8.17988 44.7085 8.5207 45.0494 8.8994C45.4281 9.31597 45.6932 9.77041 45.9204 10.3006C46.1097 10.8308 46.2233 11.3988 46.2233 12.0047ZM62.5485 15.1858C62.5485 17.155 61.6396 19.2379 60.3899 20.5254C59.1402 21.813 57.0952 22.7597 55.126 22.7597C53.1946 22.7597 51.1497 21.813 49.9 20.5254C48.6503 19.2379 47.7414 17.155 47.7414 15.1858C47.7414 13.2166 48.6503 11.1337 49.9 9.84615C51.1497 8.55857 53.1946 7.61183 55.126 7.61183C57.0952 7.61183 59.1402 8.55857 60.3899 9.84615C61.6396 11.1337 62.5485 13.2166 62.5485 15.1858ZM58.2313 18.4426C59.1023 17.5337 59.5189 16.587 59.5189 15.1858C59.5189 13.7846 59.1023 12.8379 58.2313 11.929C57.3603 11.0201 56.4514 10.6035 55.126 10.6035C53.8384 10.6035 52.9295 11.0201 52.0585 11.929C51.1875 12.8379 50.7331 13.7846 50.7331 15.1858C50.7331 16.587 51.1875 17.5337 52.0585 18.4426C52.9295 19.3515 53.8384 19.768 55.126 19.768C56.4514 19.768 57.3603 19.3515 58.2313 18.4426ZM66.2091 20.5254C64.9594 19.2379 64.0505 17.155 64.0505 15.1858C64.0505 15.1479 64.0505 15.1479 64.0505 15.11V7.61183H67.0044V15.11C67.0044 16.5112 67.4967 17.5337 68.4056 18.4426C69.2766 19.3515 70.1855 19.768 71.5109 19.768C72.8363 19.768 73.7452 19.3515 74.6162 18.4426C75.4872 17.5337 75.9795 16.5112 75.9795 15.11C75.9795 14.9586 76.0174 14.845 76.0174 14.6935V14.4663C76.0174 14.3905 76.0174 14.3527 75.9795 14.3148C76.0174 14.3148 76.0174 14.3148 76.0174 14.3148V7.61183H78.9712V15.11C78.9712 15.1479 78.9712 15.1479 78.9712 15.1858C78.9712 17.155 78.0624 19.2379 76.8127 20.5254C75.5251 21.813 73.4801 22.7597 71.5109 22.7597C69.5417 22.7597 67.4967 21.813 66.2091 20.5254Z" fill="#C4420D"/>
</svg>
