<svg width="24" height="24" viewBox="0 0 24 24" fill="none" xmlns="http://www.w3.org/2000/svg">
<path d="M13.4211 6.38014C13.542 6.38014 13.6123 6.29957 13.632 6.189C13.9436 4.52186 13.9337 4.48157 15.6711 4.14043C15.7916 4.11986 15.8623 4.05986 15.8623 3.939C15.8623 3.80871 15.7916 3.74829 15.6711 3.72814C13.9337 3.37671 13.944 3.34671 13.632 1.67914C13.6123 1.56857 13.542 1.48843 13.4211 1.48843C13.3011 1.48843 13.2403 1.56857 13.2206 1.67914C12.8991 3.34629 12.9188 3.37629 11.1711 3.72814C11.0606 3.74829 10.9804 3.80871 10.9804 3.939C10.9804 4.05986 11.061 4.11986 11.1711 4.14043C12.9291 4.48157 12.8991 4.52186 13.2206 6.189C13.2403 6.29957 13.3007 6.38014 13.4211 6.38014ZM18.2327 13.17C18.4136 13.17 18.5438 13.0397 18.564 12.8486C18.8957 10.1469 19.0058 10.1066 21.7483 9.65443C21.9694 9.61457 22.0997 9.51386 22.0997 9.31286C22.0997 9.12214 21.9694 9.00171 21.7886 8.97171C19.0058 8.49943 18.8957 8.47929 18.564 5.77714C18.5438 5.58643 18.4136 5.45571 18.2327 5.45571C18.0416 5.45571 17.9113 5.58643 17.8911 5.76728C17.5397 8.46943 17.4591 8.49943 14.667 8.97171C14.4861 9.00171 14.3554 9.12214 14.3554 9.31286C14.3554 9.50357 14.4861 9.61457 14.667 9.65443C17.4591 10.1066 17.5598 10.1469 17.8911 12.8687C17.8989 12.953 17.9387 13.0311 18.0021 13.0871C18.0656 13.1431 18.1481 13.1728 18.2327 13.17ZM10.6791 22.512C14.3554 22.512 17.3288 20.664 18.6848 17.52C18.8653 17.088 18.8048 16.7567 18.6146 16.5557C18.4337 16.3851 18.1324 16.3449 17.7703 16.4854C17.0173 16.7867 16.0933 16.9573 14.9378 16.9573C10.4481 16.9573 7.55527 14.1549 7.55527 9.74529C7.55527 8.52986 7.78627 7.32471 8.09741 6.69171C8.29884 6.29014 8.27827 5.94857 8.1077 5.73771C7.91698 5.51657 7.57541 5.44629 7.10313 5.637C4.01955 6.89271 1.90027 10.107 1.90027 13.8639C1.90027 18.7556 5.49598 22.512 10.6791 22.512ZM10.6993 20.9859C6.41013 20.9859 3.42684 17.8616 3.42684 13.7434C3.42684 11.2123 4.60198 8.98243 6.47055 7.55614C6.22927 8.20886 6.0887 9.21343 6.0887 10.1777C6.0887 15.1196 9.50398 18.4346 14.5564 18.4346C15.4607 18.4346 16.284 18.324 16.7057 18.1731C15.45 19.911 13.2103 20.9859 10.6993 20.9859Z" fill="black"/>
</svg>
