<svg width="20" height="20" viewBox="0 0 20 20" fill="none" xmlns="http://www.w3.org/2000/svg">
<path d="M8.66422 2.5C7.02927 2.5 5.46128 3.14948 4.3052 4.30556C3.14911 5.46165 2.49963 7.02963 2.49963 8.66458C2.49963 10.2995 3.14911 11.8675 4.3052 13.0236C5.46128 14.1797 7.02927 14.8292 8.66422 14.8292C10.2992 14.8292 11.8672 14.1797 13.0232 13.0236C14.1793 11.8675 14.8288 10.2995 14.8288 8.66458C14.8288 7.02963 14.1793 5.46165 13.0232 4.30556C11.8672 3.14948 10.2992 2.5 8.66422 2.5ZM3.32255 8.66417C3.31372 7.95702 3.44537 7.25516 3.70987 6.59928C3.97438 5.94341 4.36646 5.34657 4.8634 4.84339C5.36033 4.34021 5.95223 3.9407 6.60475 3.66803C7.25727 3.39535 7.95743 3.25494 8.66463 3.25494C9.37184 3.25494 10.072 3.39535 10.7245 3.66803C11.377 3.9407 11.9689 4.34021 12.4659 4.84339C12.9628 5.34657 13.3549 5.94341 13.6194 6.59928C13.8839 7.25516 14.0155 7.95702 14.0067 8.66417C14.0067 10.0811 13.4438 11.44 12.4419 12.4419C11.44 13.4438 10.0811 14.0067 8.66422 14.0067C7.2473 14.0067 5.88841 13.4438 4.8865 12.4419C3.88459 11.44 3.32255 10.0811 3.32255 8.66417Z" fill="black"/>
<path d="M14.0317 13.16C13.9751 13.0998 13.907 13.0515 13.8315 13.0181C13.7559 12.9847 13.6744 12.9668 13.5918 12.9655C13.5092 12.9642 13.4272 12.9795 13.3506 13.0105C13.274 13.0416 13.2045 13.0876 13.1461 13.1461C13.0877 13.2045 13.0416 13.274 13.0106 13.3506C12.9795 13.4272 12.9642 13.5092 12.9655 13.5918C12.9668 13.6744 12.9847 13.7559 13.0181 13.8315C13.0515 13.907 13.0998 13.9751 13.16 14.0317L16.4475 17.3192C16.5041 17.3794 16.5721 17.4276 16.6477 17.461C16.7233 17.4945 16.8048 17.5123 16.8874 17.5136C16.97 17.5149 17.052 17.4996 17.1286 17.4686C17.2051 17.4376 17.2747 17.3915 17.3331 17.3331C17.3915 17.2747 17.4376 17.2051 17.4686 17.1285C17.4996 17.052 17.5149 16.97 17.5136 16.8873C17.5123 16.8047 17.4945 16.7232 17.4611 16.6477C17.4276 16.5721 17.3794 16.504 17.3192 16.4475L14.0317 13.16Z" fill="black"/>
</svg>
